<svg width="28" height="28" viewBox="0 0 28 28" fill="none" xmlns="http://www.w3.org/2000/svg">
<path d="M17.6519 9.31166V7.00022C17.5671 7.00022 17.4822 7.00006 17.3973 7.00024C17.1929 7.00069 16.9886 6.99974 16.7842 7.00026C16.5349 7.0009 16.2857 6.99922 16.0364 7.00028C15.8168 7.00124 15.5972 6.99808 15.3776 7.00035C15.0461 7.00378 14.7314 7.02007 14.4135 7.12246C14.107 7.22118 13.8193 7.39404 13.5742 7.60135C13.4322 7.72139 13.3009 7.84994 13.1819 7.99285C13.1337 8.05221 13.0888 8.11393 13.0469 8.17777C12.9211 8.3693 12.8217 8.57995 12.7387 8.80328C12.72 8.85355 12.7017 8.90396 12.6842 8.95462C12.5563 9.32545 12.552 9.73024 12.552 10.1199C12.552 10.1687 12.552 10.219 12.552 10.2705C12.552 11.0425 12.552 12.0718 12.552 12.0718H10.3485V14.6161H12.4725H12.5293V20.9995H15.0509V14.5593L17.3396 14.5901L17.6481 12.0884L15.0622 12.0831V10.1522C15.0622 10.1522 15.0565 9.3287 15.7551 9.31734L17.6519 9.31166Z" fill="#6C6C6C"/>
</svg>
