<svg width="28" height="28" viewBox="0 0 28 28" fill="none" xmlns="http://www.w3.org/2000/svg">
<path d="M18.0132 10.8741C18.5136 10.8741 18.9193 10.4685 18.9193 9.96807C18.9193 9.46767 18.5136 9.06201 18.0132 9.06201C17.5128 9.06201 17.1071 9.46767 17.1071 9.96807C17.1071 10.4685 17.5128 10.8741 18.0132 10.8741Z" fill="#6C6C6C"/>
<path d="M14.0001 17.9346C11.8303 17.9346 10.065 16.1693 10.065 13.9995C10.065 11.8297 11.8303 10.0645 14.0001 10.0645C16.1699 10.0645 17.9352 11.8297 17.9352 13.9995C17.9352 16.1694 16.1699 17.9346 14.0001 17.9346ZM14.0001 11.2949C12.5088 11.2949 11.2955 12.5082 11.2955 13.9995C11.2955 15.4909 12.5088 16.7042 14.0001 16.7042C15.4915 16.7042 16.7048 15.4909 16.7048 13.9995C16.7048 12.5082 15.4915 11.2949 14.0001 11.2949Z" fill="#6C6C6C"/>
<path d="M16.5059 21.8748H11.4942C8.6672 21.8748 6.36729 19.5749 6.36729 16.7479V11.2515C6.36729 8.42445 8.66723 6.12451 11.4942 6.12451H16.5059C19.3329 6.12451 21.6328 8.42445 21.6328 11.2515V16.7479C21.6329 19.5749 19.3329 21.8748 16.5059 21.8748ZM11.4942 7.35498C9.34571 7.35498 7.59776 9.10293 7.59776 11.2515V16.7479C7.59776 18.8964 9.34571 20.6443 11.4942 20.6443H16.5059C18.6544 20.6443 20.4024 18.8964 20.4024 16.7479V11.2515C20.4024 9.10293 18.6544 7.35498 16.5059 7.35498H11.4942Z" fill="#6C6C6C"/>
</svg>
