<svg width="28" height="28" viewBox="0 0 28 28" fill="none" xmlns="http://www.w3.org/2000/svg">
<path d="M7.75704 20.035H10.6638L10.6602 9.85107H7.75354L7.75704 20.035Z" fill="#6C6C6C"/>
<path d="M20.6889 12.5756C20.6178 12.1702 20.5023 11.7712 20.3255 11.399C20.2234 11.1839 20.0947 10.9806 19.9422 10.7975C19.7642 10.5839 19.5274 10.3872 19.2869 10.2472C19.0809 10.1272 18.846 10.0184 18.6161 9.95315C18.4798 9.91834 18.3398 9.89442 18.1977 9.87842C17.7713 9.83043 17.3267 9.85367 16.8994 9.8866C16.7767 9.9009 16.6549 9.91821 16.5342 9.93893C16.4135 9.95966 16.2939 9.98383 16.1758 10.011C15.9675 10.0752 15.7862 10.1765 15.6313 10.3094C15.4764 10.4422 15.3478 10.6067 15.2446 10.7972C15.1853 10.9065 15.134 11.0218 15.1006 11.1418C15.0988 11.1481 15.0687 11.29 15.0749 11.29H15.0296L15.0261 9.85108H12.1205L12.124 20.0372H15.0104C15.0104 20.0372 15.0104 14.5747 15.0104 13.8277C15.0104 13.4805 15.2334 13.1912 15.5195 13.0177C15.7969 12.8494 16.1399 12.8344 16.4554 12.8139C16.5993 12.8046 16.7493 12.8093 16.8927 12.8241C17.1416 12.8498 17.3925 12.9285 17.5786 13.1025C17.8893 13.3932 17.9375 13.8364 17.9375 14.2379C17.9375 14.5622 17.9375 14.8866 17.9375 15.2111C17.9375 15.7011 17.9375 16.1911 17.9375 16.6811C17.9375 17.2054 17.9375 17.7297 17.9375 18.2539C17.9375 18.6794 17.9375 19.105 17.9375 19.5305C17.9375 19.6995 17.9375 19.8684 17.9375 20.0373H20.7966C20.7966 19.8685 20.7966 19.6998 20.7966 19.5311C20.7966 19.0984 20.7966 18.6656 20.7966 18.2329C20.7966 17.7001 20.7966 17.1672 20.7966 16.6344C20.7966 15.7614 20.7966 14.8885 20.7966 14.0156C20.7966 13.5355 20.7721 13.0493 20.6889 12.5756Z" fill="#6C6C6C"/>
<path d="M9.21052 9.16836C10.0169 9.16836 10.6707 8.51462 10.6707 7.7082C10.6707 6.90178 10.0169 6.24805 9.21052 6.24805C8.4041 6.24805 7.75037 6.90178 7.75037 7.7082C7.75037 8.51462 8.4041 9.16836 9.21052 9.16836Z" fill="#6C6C6C"/>
</svg>
