<svg width="28" height="28" viewBox="0 0 28 28" fill="none" xmlns="http://www.w3.org/2000/svg">
<path d="M20.3162 9.52898C20.3162 9.52898 21.7566 8.31661 21.711 7.77559C21.711 7.77559 20.0489 8.50561 19.6839 8.53821C19.6839 8.53821 19.5683 8.42191 19.3791 8.26901C19.316 8.21804 19.2448 8.163 19.1669 8.10686C19.0226 8.0015 18.8707 7.91097 18.7129 7.83427C18.634 7.79593 18.5538 7.76102 18.4724 7.72927C17.9425 7.49707 17.3619 7.44019 16.7921 7.50253C16.7107 7.51145 16.6295 7.5228 16.5487 7.53639C15.6036 7.68434 14.7953 8.25793 14.2866 9.03999C14.241 9.11133 14.1986 9.18456 14.1601 9.25964C14.083 9.40982 14.0209 9.56743 13.9772 9.73184C13.9601 9.79255 13.9413 9.86323 13.9236 9.9387C13.9059 10.0142 13.8892 10.0944 13.8762 10.1743C13.824 10.4937 13.8762 11.5301 13.8762 11.5301C13.8762 11.5301 9.672 11.6604 6.97347 8.16669C6.97347 8.16669 5.6438 10.6827 7.93816 12.4426C7.93816 12.4426 7.47156 12.6512 6.59025 12.1297C6.59025 12.1297 6.1522 14.046 8.99409 15.3627H7.6123C7.6123 15.3627 8.09465 17.4876 10.6628 17.6831C10.6628 17.6831 9.45046 19.3127 5.93063 19.0649C5.93063 19.0649 9.10634 21.2731 13.1977 20.2483C13.2707 20.23 13.3441 20.2106 13.4177 20.1903C14.0653 19.9905 14.7171 19.7559 15.3091 19.4412C15.3608 19.4144 15.4124 19.387 15.4642 19.3589C15.6194 19.2749 15.7753 19.1855 15.9317 19.0905C15.9317 19.0905 20.2334 16.7597 20.5854 10.7373C20.5854 10.7373 21.4894 10.2068 22.0695 9.19003C22.0695 9.19005 20.44 9.56808 20.3162 9.52898Z" fill="#6C6C6C"/>
</svg>
